<svg xmlns="http://www.w3.org/2000/svg" xmlns:xlink="http://www.w3.org/1999/xlink" xmlns:svgjs="http://svgjs.dev/svgjs" version="1.1" width="2000" height="1607" viewBox="0 0 2000 1607"><g transform="matrix(1,0,0,1,0,0)"><svg xmlns="http://www.w3.org/2000/svg" xmlns:xlink="http://www.w3.org/1999/xlink" viewBox="0 0 448 360" data-background-color="#c5c5c5" preserveAspectRatio="xMidYMid meet" height="1607" width="2000"><defs fill="#c5c5c5"/><g id="tight-bounds" transform="matrix(1,0,0,1,0,0)"><svg viewBox="0 0 448 360" height="360" width="448"><g><svg/></g><g><svg viewBox="0 0 448 360" height="360" width="448"><g><path d="M193.855 44.683c1.378 0 2.494 1.116 2.495 2.494 0 1.378-1.116 2.494-2.495 2.495h-23.846l-17.167 17.167c-0.973 0.973-2.551 0.973-3.53 0-0.973-0.973-0.973-2.551 0-3.529l13.644-13.645h-40.378c-11.518 0-19.151 2.688-23.815 8.113-4.739 5.519-6.66 14.056-6.66 25.63 0 0.069 0 0.137-0.006 0.206l0.212 36.692 14.692-14.692c0.973-0.973 2.551-0.973 3.53 0 0.973 0.973 0.973 2.551 0 3.53l-18.178 18.178c0.206 35.832 0.193 71.358-0.013 107.19 25.486 25.2 50.617 50.312 75.811 75.791h25.38c1.378 0 2.494 1.116 2.495 2.495 0 1.378-1.116 2.494-2.495 2.494h-20.448l25.942 26.241 0.006-0.006c8.188 8.188 15.577 12.859 22.824 13.413 7.146 0.543 14.442-2.956 22.586-11.093l28.555-28.555h-20.722c-1.378 0-2.494-1.116-2.495-2.494 0-1.378 1.116-2.494 2.495-2.495h25.711l16.625-16.625c0.973-0.973 2.551-0.973 3.529 0 0.973 0.973 0.973 2.551 0 3.53l-13.101 13.102h40.377c11.518 0 19.151-2.688 23.815-8.113 4.739-5.519 6.66-14.056 6.66-25.63h0.013l-0.212-36.898-16.014 16.014c-0.973 0.973-2.551 0.973-3.53 0-0.973-0.973-0.973-2.551 0-3.53l19.5-19.5c-0.206-35.832-0.193-71.358 0.013-107.19-25.486-25.2-50.617-50.312-75.811-75.791h-26.147c-1.378 0-2.494-1.116-2.495-2.495 0-1.378 1.116-2.494 2.495-2.494h21.215l-25.824-26.123c-0.044-0.037-0.081-0.075-0.124-0.112-8.188-8.188-15.577-12.859-22.824-13.413-7.146-0.543-14.442 2.956-22.586 11.093l-28.555 28.555h18.858zM122.578 44.683h45.367l32.078-32.078c9.248-9.248 17.81-13.195 26.484-12.534 8.568 0.649 16.956 5.824 25.985 14.854 0.05 0.05 0.094 0.094 0.137 0.143l29.278 29.615h43.508c13.071 0 21.919 3.268 27.594 9.871 5.6 6.517 7.864 16.101 7.864 28.867 0 0.081-0.006 0.156-0.012 0.23l-0.225 39.742 28.43 28.112 0.006-0.006c9.03 9.03 14.206 17.411 14.854 25.985 0.661 8.674-3.293 17.236-12.534 26.484l-30.768 30.768 0.237 41.843h0.012c0 12.765-2.27 22.35-7.864 28.867-5.675 6.604-14.524 9.872-27.594 9.871h-45.366l-32.078 32.078c-9.248 9.248-17.81 13.195-26.484 12.534-8.568-0.649-16.956-5.824-25.985-14.854l0.006-0.006-29.421-29.758h-43.509c-13.071 0-21.919-3.268-27.594-9.872-5.6-6.517-7.864-16.101-7.863-28.866h0.012l0.231-39.972-28.293-27.969c-0.05-0.044-0.1-0.087-0.143-0.137-9.03-9.03-14.206-17.411-14.854-25.985-0.661-8.674 3.293-17.236 12.534-26.484l30.768-30.768-0.237-41.607c-0.006-0.075-0.012-0.156-0.012-0.23 0-12.765 2.27-22.35 7.864-28.867 5.675-6.604 14.524-9.872 27.594-9.871zM87.682 179.997l-0.274-47.724-27.276 27.276c-8.138 8.138-11.636 15.44-11.094 22.587 0.549 7.246 5.226 14.642 13.413 22.823 0.037 0.037 0.081 0.081 0.113 0.125l24.837 24.551 0.281-49.644zM92.303 241.483l-0.2 35.09h0.013c0 11.58 1.921 20.117 6.66 25.63 4.664 5.432 12.297 8.113 23.815 8.113h38.576l-33.55-33.936-35.308-34.903zM325.415 49.672h-38.575l33.549 33.936 35.308 34.902 0.2-34.884c-0.006-0.069-0.006-0.137-0.007-0.205 0-11.58-1.921-20.117-6.66-25.63-4.664-5.432-12.297-8.113-23.815-8.113zM360.599 130.352l-0.281 49.645 0.274 47.724 27.276-27.276c8.138-8.138 11.636-15.44 11.094-22.587-0.549-7.252-5.226-14.642-13.413-22.824l0.006-0.006-24.956-24.669z" fill="#c5c5c5" data-fill-palette-color="tertiary"/></g><g transform="matrix(1,0,0,1,112,121.55458267142649)"><svg viewBox="0 0 224 116.89083465714702" height="116.89083465714702" width="224"><g><svg viewBox="0 0 224 116.89083465714702" height="116.89083465714702" width="224"><g transform="matrix(1,0,0,1,0,70.30831162544595)"><svg viewBox="0 0 224 46.58252303170108" height="46.58252303170108" width="224"><g><svg viewBox="0 0 224 46.58252303170108" height="46.58252303170108" width="224"><g><svg viewBox="0 0 224 25.124387043304093" height="25.124387043304093" width="224"><g transform="matrix(1,0,0,1,0,0)"><svg width="224" viewBox="3.0799999237060547 -37.959999084472656 353.46002197265625 39.63999938964844" height="25.124387043304093" data-palette-color="#c5c5c5"><path d="M3.08-16.5L3.08-16.5Q3.08-19.19 3.72-21.67 4.37-24.15 5.57-26.29 6.76-28.44 8.46-30.2 10.16-31.96 12.26-33.22 14.36-34.47 16.81-35.16 19.26-35.84 21.97-35.84L21.97-35.84Q24.12-35.84 25.74-35.56 27.37-35.28 28.58-34.85 29.79-34.42 30.6-33.91 31.42-33.4 31.96-32.93L31.96-32.93Q31.93-32.93 31.93-32.76L31.93-32.76Q31.93-32.4 31.99-31.42 32.06-30.44 32.14-29.25 32.23-28.05 32.29-26.82 32.35-25.59 32.35-24.68L32.35-24.68Q32.35-24.54 32.25-24.35 32.15-24.17 31.76-24.17L31.76-24.17Q31.54-24.17 31.23-24.24L31.23-24.24Q30.71-24.39 29.93-24.91 29.15-25.44 28.11-26.01 27.08-26.59 25.79-27.04 24.51-27.49 23-27.49L23-27.49Q21-27.49 19.36-26.7 17.72-25.9 16.58-24.51 15.43-23.12 14.79-21.2 14.16-19.29 14.16-17.02L14.16-17.02Q14.16-15.01 14.6-13.2 15.04-11.38 15.93-10.01 16.82-8.64 18.15-7.82 19.48-7.01 21.24-7.01L21.24-7.01Q22.63-7.01 23.71-7.1 24.78-7.2 25.71-7.42 26.64-7.64 27.53-8.01 28.42-8.37 29.44-8.94L29.44-8.94Q29.49-8.96 29.69-8.96L29.69-8.96Q29.86-8.96 29.92-8.83 29.98-8.69 29.98-8.28L29.98-8.28 29.98-5.35Q29.98-4.54 29.97-3.77 29.96-3 29.94-2.39 29.93-1.78 29.92-1.4 29.91-1.03 29.88-1.03L29.88-1.03Q28.76-0.32 27.48 0.13 26.2 0.59 24.84 0.84 23.49 1.1 22.12 1.18 20.75 1.27 19.48 1.27L19.48 1.27Q16.04 1.27 13.04-0.04 10.03-1.34 7.82-3.69 5.62-6.03 4.35-9.3 3.08-12.57 3.08-16.5ZM46.95 1.27L46.95 1.27Q43.5 1.27 40.9 0.15 38.3-0.98 36.55-2.84 34.79-4.71 33.91-7.14 33.03-9.57 33.03-12.18L33.03-12.18Q33.03-14.79 33.88-17.15 34.74-19.51 36.28-21.37 37.81-23.24 39.96-24.5 42.11-25.76 44.7-26.2L44.7-26.2Q45.09-26.22 45.09-26.37L45.09-26.37Q45.09-26.64 45.03-26.87 44.97-27.1 44.97-27.27L44.97-27.27Q44.97-27.54 45.07-27.64 45.16-27.73 45.29-27.73L45.29-27.73Q49.95-27.73 53.22-26.67 56.49-25.61 58.54-23.78 60.59-21.95 61.52-19.46 62.45-16.97 62.45-14.11L62.45-14.11Q62.45-10.47 61.23-7.62 60.01-4.76 57.9-2.78 55.78-0.81 52.96 0.23 50.14 1.27 46.95 1.27ZM42.43-12.45L42.43-12.45Q42.43-11.13 42.71-9.84 42.99-8.54 43.64-7.5 44.28-6.45 45.33-5.8 46.38-5.15 47.95-5.15L47.95-5.15Q49.07-5.2 49.91-5.65 50.75-6.1 51.36-6.82 51.98-7.54 52.38-8.45 52.78-9.35 53.01-10.31 53.24-11.28 53.34-12.21 53.44-13.13 53.44-13.89L53.44-13.89Q53.44-15.16 53.06-16.38 52.68-17.6 51.95-18.53 51.22-19.46 50.13-20.03 49.05-20.61 47.63-20.61L47.63-20.61Q46.16-20.61 45.16-19.74 44.16-18.87 43.56-17.6 42.97-16.33 42.7-14.93 42.43-13.53 42.43-12.45ZM83.54-8.33L84.05-13.89Q84.13-14.67 84.21-15.53 84.3-16.38 84.42-17.31L84.42-17.31Q83.86-18.77 82.83-19.69 81.81-20.61 80.27-20.61L80.27-20.61Q78.75-20.61 77.7-19.74 76.66-18.87 76.02-17.6 75.39-16.33 75.1-14.93 74.82-13.53 74.82-12.45L74.82-12.45Q74.82-11.13 74.98-9.84 75.14-8.54 75.5-7.5 75.85-6.45 76.44-5.8 77.02-5.15 77.9-5.15L77.9-5.15Q80.05-5.22 81.39-6.13 82.73-7.03 83.54-8.33L83.54-8.33ZM95.72-36.84L92.57-2.47Q92.57-2.42 92.56-2.36 92.55-2.29 92.55-2.25L92.55-2.25Q92.55-2.12 92.56-2.05 92.57-1.98 92.57-1.9L92.57-1.9Q92.57-1.68 92.41-1.55 92.26-1.42 91.6-1.25L91.6-1.25 85.05 0.88Q84.79 0.98 84.35 1.12 83.91 1.27 83.49 1.27L83.49 1.27Q83.15 1.27 82.89 1.1 82.64 0.93 82.64 0.46L82.64 0.46Q82.64 0.02 82.65-0.24 82.66-0.51 82.67-0.74 82.69-0.98 82.72-1.25 82.76-1.51 82.81-1.95L82.81-1.95Q80.98-0.49 79.04 0.39 77.09 1.27 74.95 1.27L74.95 1.27Q72.6 1.27 70.78 0.16 68.96-0.95 67.72-2.82 66.47-4.69 65.83-7.09 65.18-9.5 65.18-12.11L65.18-12.11Q65.18-15.5 66.29-18.3 67.4-21.09 69.31-23.08 71.21-25.07 73.75-26.16 76.29-27.25 79.15-27.25L79.15-27.25Q80.68-27.25 82.09-26.44 83.49-25.63 84.74-24.37L84.74-24.37Q84.81-25.56 84.91-26.97 85-28.37 85.1-29.82 85.2-31.27 85.3-32.69 85.4-34.11 85.47-35.28L85.47-35.28Q85.47-35.5 85.63-35.63 85.79-35.77 86.45-35.94L86.45-35.94 93.31-37.57Q93.57-37.62 94.01-37.79 94.45-37.96 94.87-37.96L94.87-37.96Q95.19-37.96 95.47-37.82 95.75-37.67 95.75-37.26L95.75-37.26Q95.75-37.21 95.73-37.05 95.72-36.89 95.72-36.84L95.72-36.84ZM112.57-27.25L112.57-27.25Q114.89-27.25 116.78-26.38 118.67-25.51 120.02-24.13 121.38-22.75 122.11-21.04 122.84-19.34 122.84-17.63L122.84-17.63Q122.84-16.11 121.92-14.59 120.99-13.06 119.32-11.84 117.64-10.62 115.3-9.86 112.96-9.11 110.15-9.11L110.15-9.11Q108.68-9.11 107.07-9.4L107.07-9.4Q107.17-8.35 107.68-7.59 108.2-6.84 108.98-6.35 109.76-5.86 110.75-5.63 111.74-5.4 112.79-5.4L112.79-5.4Q113.96-5.4 115.04-5.6 116.13-5.81 117.13-6.15 118.13-6.49 119.06-6.91 119.99-7.32 120.82-7.74L120.82-7.74Q121.04-7.79 121.2-7.82 121.35-7.86 121.5-7.86L121.5-7.86Q121.5-7.86 121.49-7.47 121.48-7.08 121.48-6.37 121.48-5.66 121.46-4.66 121.45-3.66 121.43-2.44L121.43-2.44Q121.5-2.32 121.53-2.2 121.55-2.08 121.55-2L121.55-2Q121.55-1.71 121.01-1.37 120.48-1.03 119.61-0.66 118.74-0.29 117.63 0.05 116.52 0.39 115.37 0.67 114.23 0.95 113.15 1.11 112.08 1.27 111.27 1.27L111.27 1.27Q108.64 1.27 106.16 0.35 103.68-0.56 101.76-2.27 99.85-3.98 98.7-6.42 97.55-8.86 97.55-11.91L97.55-11.91Q97.55-15.11 98.65-17.91 99.75-20.7 101.74-22.78 103.73-24.85 106.49-26.05 109.25-27.25 112.57-27.25ZM112.27-20.75L112.27-20.75Q111.27-20.75 110.43-20.32 109.59-19.9 108.89-19.1 108.2-18.31 107.68-17.2 107.17-16.09 106.85-14.75L106.85-14.75Q109.37-15.19 111.03-15.67 112.69-16.16 113.69-16.66 114.69-17.16 115.1-17.66 115.52-18.16 115.52-18.63L115.52-18.63Q115.52-19.07 115.19-19.46 114.86-19.85 114.37-20.14 113.88-20.43 113.31-20.59 112.74-20.75 112.27-20.75ZM138.64-34.99L138.64-34.99Q138.61-34.4 138.54-33.53 138.47-32.67 138.38-31.7 138.3-30.74 138.19-29.75 138.08-28.76 137.99-27.93 137.91-27.1 137.86-26.5 137.81-25.9 137.81-25.73L137.81-25.73Q137.71-24.22 137.6-22.92 137.49-21.63 137.37-20.36 137.25-19.09 137.11-17.74 136.98-16.38 136.83-14.75 136.68-13.11 136.5-11.11 136.32-9.11 136.12-6.52L136.12-6.52 146.23-7.54Q146.91-7.62 147.35-7.62L147.35-7.62Q147.89-7.62 148.02-7.45 148.16-7.28 148.16-6.91L148.16-6.91Q148.16-6.86 148.13-6.77 148.11-6.69 148.02-6.45 147.94-6.2 147.78-5.74 147.62-5.27 147.35-4.44L147.35-4.44 146.82-2.83Q146.55-2.05 146.32-1.43 146.08-0.81 145.74-0.35 145.4 0.1 144.89 0.37 144.37 0.63 143.57 0.71L143.57 0.71Q143.06 0.76 142.18 0.79 141.3 0.83 140.15 0.87 139 0.9 137.67 0.95 136.34 1 134.95 1.07L134.95 1.07Q133.58 1.12 132.19 1.14 130.8 1.15 129.56 1.17 128.31 1.2 127.26 1.22 126.21 1.25 125.53 1.27L125.53 1.27Q124.89 1.27 124.61 1.17 124.33 1.07 124.33 0.85L124.33 0.85Q124.33 0.59 124.5 0.09 124.67-0.42 124.94-1.04 125.21-1.66 125.54-2.33 125.87-3 126.19-3.64L126.19-3.64 126.85-12.35Q127.04-14.58 127.24-16.87 127.43-19.17 127.58-21.31L127.58-21.31 127.99-27.78Q128.14-30.08 128.19-31.12 128.24-32.15 128.24-32.25L128.24-32.25Q128.29-32.69 128.31-32.98 128.33-33.28 128.4-33.47 128.46-33.67 128.58-33.76 128.7-33.86 128.95-33.91L128.95-33.91 137.51-35.94Q137.78-36.04 138.17-36.04L138.17-36.04Q138.44-36.04 138.55-35.88 138.66-35.72 138.66-35.28L138.66-35.28Q138.66-35.23 138.65-35.14 138.64-35.06 138.64-34.99ZM177.6-27.66L175.09-4.91Q175.06-4.81 175.06-4.72 175.06-4.64 175.06-4.57L175.06-4.57Q175.06-3.96 175.26-3.55 175.45-3.15 175.68-2.89 175.92-2.64 176.11-2.48 176.31-2.32 176.31-2.2L176.31-2.2Q176.31-1.86 175.57-1.56L175.57-1.56 169.01 1.25Q168.98 1.27 168.84 1.27L168.84 1.27Q168.64 1.27 168.44 0.93 168.25 0.59 168.07 0.06 167.88-0.46 167.72-1.06 167.57-1.66 167.44-2.17L167.44-2.17Q165.91-0.39 164.12 0.44 162.34 1.27 160.58 1.27L160.58 1.27Q158.53 1.27 156.58 0.37 154.63-0.54 153.11-2.21 151.6-3.88 150.68-6.25 149.77-8.62 149.77-11.57L149.77-11.57Q149.77-15.06 150.78-17.94 151.79-20.83 153.53-22.9 155.26-24.98 157.57-26.11 159.88-27.25 162.46-27.25L162.46-27.25Q164.29-27.25 165.93-26.5 167.57-25.76 169.03-24.58L169.03-24.58Q169.18-25.32 169.2-25.76 169.23-26.2 169.31-26.44 169.4-26.68 169.64-26.77 169.88-26.86 170.45-26.9L170.45-26.9Q172.2-27.15 173.95-27.36 175.7-27.56 177.6-27.66L177.6-27.66ZM166.76-6.88L167.79-14.11Q168.03-15.5 168.11-16.74 168.2-17.97 168.25-18.99L168.25-18.99Q167.86-19.29 167.41-19.6 166.96-19.92 166.43-20.2 165.91-20.48 165.33-20.65 164.76-20.83 164.12-20.83L164.12-20.83Q162.8-20.83 161.91-19.97 161.02-19.12 160.47-17.87 159.92-16.63 159.69-15.23 159.46-13.84 159.46-12.77L159.46-12.77Q159.46-8.91 160.47-7.12 161.49-5.32 163.29-5.32L163.29-5.32Q164.03-5.32 164.93-5.74 165.83-6.15 166.76-6.88L166.76-6.88ZM191.73-17.43L190.93-7.96Q191.17-7.47 191.62-6.97 192.07-6.47 192.67-6.05 193.27-5.64 193.98-5.38 194.69-5.13 195.44-5.13L195.44-5.13Q196.49-5.13 197.42-5.94 198.35-6.76 199.05-8.14 199.74-9.52 200.13-11.29 200.52-13.06 200.52-14.97L200.52-14.97Q200.52-16.14 200.31-17.19 200.11-18.24 199.67-19.02 199.23-19.8 198.53-20.26 197.84-20.73 196.86-20.73L196.86-20.73Q195.27-20.73 193.95-19.8 192.64-18.87 191.73-17.43L191.73-17.43ZM181.85 1.2L181.85 1.2Q181.5 1.27 181.31 1.27L181.31 1.27Q180.53 1.27 180.53 0.34L180.53 0.34Q180.53 0.22 180.54 0.1 180.55-0.02 180.58-0.17L180.58-0.17 183.41-34.72Q183.41-34.79 183.42-34.86 183.43-34.94 183.43-34.99L183.43-34.99Q183.43-35.08 183.42-35.16 183.41-35.23 183.41-35.28L183.41-35.28Q183.41-35.5 183.57-35.63 183.73-35.77 184.38-35.94L184.38-35.94 191.24-37.57Q191.51-37.62 191.95-37.79 192.39-37.96 192.81-37.96L192.81-37.96Q193.12-37.96 193.41-37.82 193.69-37.67 193.69-37.26L193.69-37.26Q193.69-37.21 193.67-37.16 193.66-37.11 193.66-37.06L193.66-37.06Q193.64-36.94 193.54-35.99 193.44-35.03 193.32-33.68 193.2-32.32 193.05-30.77 192.9-29.22 192.78-27.87 192.66-26.51 192.56-25.56 192.47-24.61 192.44-24.49L192.44-24.49Q194.22-25.66 196.13-26.45 198.03-27.25 199.94-27.25L199.94-27.25Q202.45-27.25 204.28-26.21 206.11-25.17 207.31-23.45 208.51-21.73 209.08-19.48 209.65-17.24 209.65-14.84L209.65-14.84Q209.65-12.92 209.3-10.97 208.94-9.03 208.27-7.25 207.6-5.47 206.59-3.91 205.58-2.34 204.27-1.2 202.96-0.05 201.35 0.61 199.74 1.27 197.86 1.27L197.86 1.27Q195.59 1.27 193.71 0.27 191.83-0.73 190.22-2.32L190.22-2.32Q190.17-1.73 190.15-1.39 190.12-1.05 189.99-0.87 189.85-0.68 189.58-0.57 189.32-0.46 188.78-0.34L188.78-0.34Q188.51-0.27 187.84-0.11 187.17 0.05 186.23 0.26 185.29 0.46 184.15 0.71 183.02 0.95 181.85 1.2ZM244.83-14.43L244.83-32.71Q245.02-33.52 245.17-33.89 245.32-34.25 245.81-34.38L245.81-34.38 252.13-35.86Q252.42-35.96 252.76-35.96L252.76-35.96Q253.08-35.96 253.23-35.74 253.37-35.52 253.37-34.91L253.37-34.91Q253.23-34.33 253.13-33.12 253.03-31.91 252.98-30.47 252.93-29.03 252.91-27.58 252.89-26.12 252.89-25.05L252.89-25.05 252.89-23.71Q252.89-22.19 252.86-20.41 252.84-18.63 252.8-16.8 252.76-14.97 252.71-13.18 252.67-11.4 252.62-9.84L252.62-9.84 252.47-5.66Q252.45-5.54 252.45-5.44 252.45-5.35 252.45-5.25L252.45-5.25 252.45-4.88Q252.45-4.47 252.46-4.19 252.47-3.91 252.47-3.69L252.47-3.69Q252.47-3.44 252.43-3.25 252.4-3.05 252.25-2.87 252.1-2.69 251.85-2.49 251.59-2.29 251.15-2L251.15-2Q250.91-1.83 250.35-1.5 249.78-1.17 249.1-0.76 248.42-0.34 247.69 0.1 246.95 0.54 246.34 0.89 245.73 1.25 245.35 1.46 244.98 1.68 244.98 1.68L244.98 1.68 233.65-15.75 232.62-1.46Q232.6-1.27 232.54-1.05 232.48-0.83 232.21-0.71L232.21-0.71Q231.99-0.61 231.45-0.4 230.91-0.2 230.19 0.07 229.47 0.34 228.68 0.62 227.89 0.9 227.18 1.14 226.47 1.37 225.92 1.51 225.37 1.66 225.18 1.66L225.18 1.66Q224.81 1.66 224.56 1.46 224.32 1.27 224.32 0.76L224.32 0.76Q224.56-2.29 224.88-5.9 225.2-9.5 225.49-13.28 225.79-17.07 226.04-20.84 226.3-24.61 226.47-28L226.47-28Q226.47-28.1 226.16-28.65 225.86-29.2 225.48-29.85 225.1-30.49 224.8-31.07 224.49-31.64 224.49-31.79L224.49-31.79Q224.49-31.96 224.67-32.1 224.86-32.25 225.27-32.5L225.27-32.5 231.79-36.18Q231.86-36.18 232-36.21 232.13-36.23 232.23-36.23L232.23-36.23Q232.5-36.23 232.66-36.17 232.82-36.11 232.99-35.79L232.99-35.79 244.83-14.43ZM270.27 1.27L270.27 1.27Q266.82 1.27 264.22 0.15 261.62-0.98 259.87-2.84 258.11-4.71 257.23-7.14 256.35-9.57 256.35-12.18L256.35-12.18Q256.35-14.79 257.2-17.15 258.06-19.51 259.6-21.37 261.13-23.24 263.28-24.5 265.43-25.76 268.02-26.2L268.02-26.2Q268.41-26.22 268.41-26.37L268.41-26.37Q268.41-26.64 268.35-26.87 268.29-27.1 268.29-27.27L268.29-27.27Q268.29-27.54 268.39-27.64 268.48-27.73 268.61-27.73L268.61-27.73Q273.27-27.73 276.54-26.67 279.81-25.61 281.86-23.78 283.91-21.95 284.84-19.46 285.77-16.97 285.77-14.11L285.77-14.11Q285.77-10.47 284.55-7.62 283.33-4.76 281.22-2.78 279.1-0.81 276.28 0.23 273.46 1.27 270.27 1.27ZM265.75-12.45L265.75-12.45Q265.75-11.13 266.03-9.84 266.31-8.54 266.96-7.5 267.6-6.45 268.65-5.8 269.7-5.15 271.27-5.15L271.27-5.15Q272.39-5.2 273.23-5.65 274.07-6.1 274.68-6.82 275.29-7.54 275.7-8.45 276.1-9.35 276.33-10.31 276.56-11.28 276.66-12.21 276.76-13.13 276.76-13.89L276.76-13.89Q276.76-15.16 276.38-16.38 276-17.6 275.27-18.53 274.54-19.46 273.45-20.03 272.37-20.61 270.95-20.61L270.95-20.61Q269.48-20.61 268.48-19.74 267.48-18.87 266.88-17.6 266.29-16.33 266.02-14.93 265.75-13.53 265.75-12.45ZM306.4-18.82L301.85-18.82Q301.51-16.26 301.21-13.71 300.9-11.16 300.83-8.94L300.83-8.94Q300.83-7.98 300.98-7.35 301.12-6.71 301.4-6.35 301.68-5.98 302.07-5.82 302.47-5.66 302.95-5.66L302.95-5.66Q303.73-5.66 304.66-5.9 305.59-6.13 306.52-6.49L306.52-6.49Q306.81-6.62 307.02-6.68 307.23-6.74 307.37-6.74L307.37-6.74Q307.62-6.74 307.7-6.52 307.79-6.3 307.87-5.75 307.96-5.2 308.13-4.27 308.3-3.34 308.69-1.93L308.69-1.93Q308.72-1.81 308.73-1.72 308.74-1.64 308.74-1.56L308.74-1.56Q308.74-1.22 308.48-1.07 308.23-0.93 307.64-0.73L307.64-0.73Q306.64-0.39 305.53-0.04 304.42 0.32 303.33 0.61 302.25 0.9 301.24 1.09 300.24 1.27 299.49 1.27L299.49 1.27Q295.41 1.27 293.54-0.76 291.67-2.78 291.67-6.93L291.67-6.93Q291.67-7.64 291.72-8.39 291.77-9.13 291.85-9.94L291.85-9.94Q292.09-12.38 292.27-14.56 292.46-16.75 292.65-18.75L292.65-18.75 290.09-18.75Q288.77-18.75 288.18-18.86 287.6-18.97 287.6-19.31L287.6-19.31Q287.6-19.41 287.84-19.84 288.09-20.26 288.46-20.86 288.84-21.46 289.28-22.14 289.72-22.83 290.12-23.43 290.53-24.02 290.82-24.46 291.11-24.9 291.19-25L291.19-25 292.92-25Q293.14-26.86 293.27-28.11 293.41-29.37 293.49-30.2 293.58-31.03 293.65-31.48 293.73-31.93 293.81-32.15 293.9-32.37 294.03-32.43 294.16-32.5 294.38-32.54L294.38-32.54Q295.48-32.76 296.51-32.95 297.53-33.13 298.56-33.33 299.58-33.52 300.65-33.78 301.71-34.03 302.86-34.38L302.86-34.38Q302.93-34.38 302.95-34.39 302.98-34.4 303.05-34.4L303.05-34.4Q303.34-34.4 303.34-34.2L303.34-34.2 303.34-34.16Q303.22-32.81 302.97-30.42 302.71-28.03 302.39-25L302.39-25 308.93-25Q309.13-25 309.31-24.87 309.5-24.73 309.5-24.41L309.5-24.41Q309.5-24.29 309.2-23.54 308.91-22.78 308.37-21.56L308.37-21.56 307.49-19.58Q307.32-19.21 307.14-19.04 306.96-18.87 306.4-18.82L306.4-18.82ZM325.68-27.25L325.68-27.25Q328-27.25 329.89-26.38 331.78-25.51 333.14-24.13 334.49-22.75 335.23-21.04 335.96-19.34 335.96-17.63L335.96-17.63Q335.96-16.11 335.03-14.59 334.1-13.06 332.43-11.84 330.76-10.62 328.41-9.86 326.07-9.11 323.26-9.11L323.26-9.11Q321.8-9.11 320.19-9.4L320.19-9.4Q320.29-8.35 320.8-7.59 321.31-6.84 322.09-6.35 322.87-5.86 323.86-5.63 324.85-5.4 325.9-5.4L325.9-5.4Q327.07-5.4 328.16-5.6 329.24-5.81 330.25-6.15 331.25-6.49 332.17-6.91 333.1-7.32 333.93-7.74L333.93-7.74Q334.15-7.79 334.31-7.82 334.47-7.86 334.62-7.86L334.62-7.86Q334.62-7.86 334.6-7.47 334.59-7.08 334.59-6.37 334.59-5.66 334.58-4.66 334.57-3.66 334.54-2.44L334.54-2.44Q334.62-2.32 334.64-2.2 334.66-2.08 334.66-2L334.66-2Q334.66-1.71 334.13-1.37 333.59-1.03 332.72-0.66 331.86-0.29 330.75 0.05 329.64 0.39 328.49 0.67 327.34 0.95 326.27 1.11 325.19 1.27 324.39 1.27L324.39 1.27Q321.75 1.27 319.27 0.35 316.79-0.56 314.88-2.27 312.96-3.98 311.81-6.42 310.67-8.86 310.67-11.91L310.67-11.91Q310.67-15.11 311.76-17.91 312.86-20.7 314.85-22.78 316.84-24.85 319.6-26.05 322.36-27.25 325.68-27.25ZM325.39-20.75L325.39-20.75Q324.39-20.75 323.54-20.32 322.7-19.9 322.01-19.1 321.31-18.31 320.8-17.2 320.29-16.09 319.97-14.75L319.97-14.75Q322.48-15.19 324.14-15.67 325.8-16.16 326.8-16.66 327.8-17.16 328.22-17.66 328.63-18.16 328.63-18.63L328.63-18.63Q328.63-19.07 328.31-19.46 327.98-19.85 327.49-20.14 327-20.43 326.43-20.59 325.85-20.75 325.39-20.75ZM339.45-0.07L339.13-6.74Q339.13-6.76 339.12-6.77 339.11-6.79 339.11-6.81L339.11-6.81Q339.11-7.13 339.45-7.13L339.45-7.13Q339.67-7.13 339.84-6.96L339.84-6.96Q340.81-6.03 342.07-5.44 343.33-4.86 344.79-4.86L344.79-4.86Q345.18-4.86 345.7-4.94 346.21-5.03 346.67-5.22 347.14-5.42 347.44-5.75 347.75-6.08 347.75-6.57L347.75-6.57Q347.75-7.1 347.48-7.56 347.21-8.01 346.77-8.3L346.77-8.3Q346.53-8.47 345.92-8.9 345.31-9.33 344.61-9.81 343.92-10.3 343.29-10.74 342.67-11.18 342.43-11.38L342.43-11.38Q341.33-12.21 340.68-13.06 340.03-13.92 339.69-14.83 339.35-15.75 339.25-16.75 339.15-17.75 339.15-18.87L339.15-18.87Q339.15-20.58 340.06-22.09 340.96-23.61 342.44-24.76 343.92-25.9 345.8-26.57 347.68-27.25 349.63-27.25L349.63-27.25Q351.24-27.25 352.8-26.76 354.36-26.27 355.71-25.1L355.71-25.1Q355.83-23.56 355.88-22.07 355.93-20.58 356.02-18.95L356.02-18.95Q356.02-18.63 355.88-18.52 355.73-18.41 355.54-18.41L355.54-18.41Q355.37-18.41 355.24-18.53L355.24-18.53Q354.68-19.07 354.1-19.59 353.51-20.12 352.86-20.52 352.22-20.92 351.48-21.18 350.75-21.44 349.92-21.44L349.92-21.44Q349.41-21.44 348.9-21.35 348.38-21.26 347.97-21.03 347.55-20.8 347.3-20.41 347.04-20.02 347.04-19.41L347.04-19.41Q347.04-18.7 347.21-18.19 347.38-17.68 348.02-17.19L348.02-17.19 352.56-14.11Q353.8-13.26 354.57-12.44 355.34-11.62 355.78-10.82 356.22-10.01 356.38-9.22 356.54-8.42 356.54-7.64L356.54-7.64Q356.54-5.44 355.52-3.77 354.51-2.1 352.9-0.99 351.29 0.12 349.25 0.7 347.21 1.27 345.16 1.27L345.16 1.27Q343.6 1.27 342.15 0.94 340.69 0.61 339.45-0.07L339.45-0.07Z" opacity="1" transform="matrix(1,0,0,1,0,0)" fill="#c5c5c5" class="undefined-text-0" data-fill-palette-color="primary" id="text-0"/></svg></g></svg></g><g transform="matrix(1,0,0,1,60.567107936052835,31.05565183893915)"><svg viewBox="0 0 102.86578412789433 15.526871192761929" height="15.526871192761929" width="102.86578412789433"><g transform="matrix(1,0,0,1,0,0)"><svg width="102.86578412789433" viewBox="2.700000047683716 -35.38999938964844 237.47000122070312 35.85271072387695" height="15.526871192761929" data-palette-color="#c5c5c5"><path d="M14 0.46L14 0.46Q8.7 0.46 5.7-2.91 2.7-6.27 2.7-12.31 2.7-18.35 5.83-21.78 8.95-25.2 14.36-25.2L14.36-25.2Q17.54-25.2 20.5-24.09L20.5-24.09 19.89-22.09Q16.68-23.15 14.31-23.15L14.31-23.15Q9.78-23.15 7.43-20.36 5.08-17.57 5.08-12.42 5.08-7.28 7.41-4.42L7.41-4.42Q9.76-1.59 13.98-1.59L13.98-1.59Q17.34-1.59 20.22-2.81L20.22-2.81 20.22-0.71Q17.87 0.46 14 0.46ZM42.09-20.32L42.09-20.32Q39.86-23.15 35.75-23.15 31.65-23.15 29.43-20.35 27.22-17.54 27.22-12.41 27.22-7.28 29.46-4.44 31.7-1.59 35.78-1.59 39.86-1.59 42.11-4.45 44.36-7.31 44.36-12.41 44.36-17.52 42.09-20.32ZM24.85-12.39Q24.85-18.43 27.78-21.81 30.71-25.2 35.82-25.2 40.92-25.2 43.83-21.79 46.74-18.38 46.74-12.37 46.74-6.37 43.8-2.93L43.8-2.93Q40.87 0.46 35.69 0.46L35.69 0.46Q30.81 0.56 27.78-3.03 24.74-6.62 24.85-12.39L24.85-12.39ZM62.76 0.46Q57.55 0.46 54.85-2.73 52.14-5.92 52.14-12.18 52.14-18.45 54.82-21.83 57.5-25.2 62.63-25.2L62.63-25.2Q65.36-25.2 67.32-24.2 69.28-23.21 70.77-20.88L70.77-20.88 70.93-20.88Q70.77-23.76 70.77-26.49L70.77-26.49 70.77-35.39 73-35.39 73 0 71.53 0 70.95-3.77 70.77-3.77Q67.97 0.46 62.76 0.46ZM70.77-12.01L70.77-12.39Q70.77-18.15 68.85-20.65 66.93-23.15 62.77-23.15 58.61-23.15 56.57-20.32 54.52-17.49 54.52-12.06L54.52-12.06Q54.52-1.54 62.68-1.54L62.68-1.54Q66.88-1.54 68.83-3.98 70.77-6.42 70.77-12.01L70.77-12.01ZM82.37-14.05L97.67-14.05Q97.67-18.33 95.81-20.77 93.95-23.21 90.49-23.21 87.02-23.21 84.88-20.84 82.73-18.48 82.37-14.05L82.37-14.05ZM91.3 0.46L91.3 0.46Q85.91 0.46 82.88-2.86L82.88-2.86Q79.87-6.22 79.87-12.16 79.87-18.1 82.79-21.65 85.71-25.2 90.64-25.2L90.64-25.2Q95.01-25.2 97.52-22.14L97.52-22.14Q100.04-19.14 100.04-13.88L100.04-13.88 100.04-12.06 82.25-12.06Q82.27-6.98 84.61-4.28 86.95-1.59 91.3-1.59L91.3-1.59Q93.34-1.59 94.99-1.88 96.63-2.17 99.08-3.16L99.08-3.16 99.08-1.11Q97.06-0.23 95.27 0.11 93.47 0.46 91.3 0.46ZM121.4-14.05L136.69-14.05Q136.69-18.33 134.83-20.77 132.98-23.21 129.51-23.21 126.05-23.21 123.9-20.84 121.75-18.48 121.4-14.05L121.4-14.05ZM130.32 0.46L130.32 0.46Q124.94 0.46 121.9-2.86L121.9-2.86Q118.9-6.22 118.9-12.16 118.9-18.1 121.82-21.65 124.73-25.2 129.66-25.2L129.66-25.2Q134.04-25.2 136.54-22.14L136.54-22.14Q139.07-19.14 139.07-13.88L139.07-13.88 139.07-12.06 121.27-12.06Q121.3-6.98 123.64-4.28 125.97-1.59 130.32-1.59L130.32-1.59Q132.37-1.59 134.01-1.88 135.65-2.17 138.11-3.16L138.11-3.16 138.11-1.11Q136.08-0.23 134.29 0.11 132.5 0.46 130.32 0.46ZM155.09 0.46Q149.88 0.46 147.18-2.73 144.47-5.92 144.47-12.18 144.47-18.45 147.15-21.83 149.83-25.2 154.96-25.2L154.96-25.2Q157.69-25.2 159.65-24.2 161.61-23.21 163.1-20.88L163.1-20.88 163.26-20.88Q163.1-23.76 163.1-26.49L163.1-26.49 163.1-35.39 165.33-35.39 165.33 0 163.86 0 163.28-3.77 163.1-3.77Q160.3 0.46 155.09 0.46ZM163.1-12.01L163.1-12.39Q163.1-18.15 161.18-20.65 159.26-23.15 155.1-23.15 150.95-23.15 148.9-20.32 146.85-17.49 146.85-12.06L146.85-12.06Q146.85-1.54 155.02-1.54L155.02-1.54Q159.21-1.54 161.16-3.98 163.1-6.42 163.1-12.01L163.1-12.01ZM173.64-24.72L175.89-24.72 175.89 0 173.64 0 173.64-24.72ZM174.75-29.4L174.75-29.4Q173.31-29.4 173.31-31.58 173.31-33.77 174.75-33.77L174.75-33.77Q175.46-33.77 175.85-33.2 176.25-32.63 176.25-31.61 176.25-30.59 175.85-29.99 175.46-29.4 174.75-29.4ZM186.56-22.78L186.56-7.13Q186.56-4.27 187.56-2.91 188.55-1.54 190.7-1.54 192.85-1.54 194.44-1.92L194.44-1.92 194.44-0.1Q192.85 0.46 190.65 0.46L190.65 0.46Q187.39 0.46 185.82-1.31 184.26-3.08 184.26-6.8L184.26-6.8 184.26-22.78 180.59-22.78 180.59-24.09 184.26-25.13 185.39-30.71 186.56-30.71 186.56-24.72 193.81-24.72 193.81-22.78 186.56-22.78ZM215.57-20.32L215.57-20.32Q213.35-23.15 209.24-23.15 205.13-23.15 202.92-20.35 200.71-17.54 200.71-12.41 200.71-7.28 202.95-4.44 205.18-1.59 209.27-1.59 213.35-1.59 215.6-4.45 217.85-7.31 217.85-12.41 217.85-17.52 215.57-20.32ZM198.33-12.39Q198.33-18.43 201.27-21.81 204.2-25.2 209.31-25.2 214.41-25.2 217.32-21.79 220.23-18.38 220.23-12.37 220.23-6.37 217.29-2.93L217.29-2.93Q214.36 0.46 209.18 0.46L209.18 0.46Q204.3 0.56 201.27-3.03 198.23-6.62 198.33-12.39L198.33-12.39ZM236.81-25.2L236.81-25.2Q238.4-25.2 240.17-24.9L240.17-24.9 239.74-22.72Q238.2-23.1 236.53-23.1L236.53-23.1Q233.34-23.1 231.33-20.41 229.32-17.72 229.32-13.65L229.32-13.65 229.32 0 227.07 0 227.07-24.72 228.97-24.72 229.2-20.27 229.37-20.27Q230.86-22.98 232.61-24.09L232.61-24.09Q234.38-25.2 236.81-25.2Z" opacity="1" transform="matrix(1,0,0,1,0,0)" fill="#c5c5c5" class="undefined-text-1" data-fill-palette-color="secondary" id="text-1"/></svg></g></svg></g></svg></g></svg></g><g transform="matrix(1,0,0,1,79.81147658509455,0)"><svg viewBox="0 0 64.3770468298109 64.3770468298109" height="64.3770468298109" width="64.3770468298109"><g><svg/></g><g id="icon-0"><svg viewBox="0 0 64.3770468298109 64.3770468298109" height="64.3770468298109" width="64.3770468298109"><g><path d="M19.313 64.377c-10.666 0-19.313-8.647-19.313-19.313v-25.751c0-10.666 8.647-19.313 19.313-19.313h25.751c10.666 0 19.313 8.647 19.313 19.313v25.751c0 10.666-8.647 19.313-19.313 19.313z" fill="#c5c5c5" data-fill-palette-color="accent"/></g><g transform="matrix(1,0,0,1,12.690663573354055,12.87540936596218)"><svg viewBox="0 0 38.995719683102784 38.62622809788653" height="38.62622809788653" width="38.995719683102784"><g><svg xmlns="http://www.w3.org/2000/svg" xmlns:xlink="http://www.w3.org/1999/xlink" version="1.1" x="0" y="0" viewBox="2.4307126998901367 2.236999988555908 94.99962615966797 94.0994873046875" enable-background="new 0 0 100 100" xml:space="preserve" height="38.62622809788653" width="38.995719683102784" class="icon-x-0" data-fill-palette-color="quaternary" id="x-0"><g fill="#c5c5c5" data-fill-palette-color="quaternary"><path fill="#ffffff" d="M97.361 2.237H11.857v55.636l10.131-2.926-0.081-42.621h65.33v41.805c0 23.011-11.977 28.367-17.259-1.67L22.01 66.511v-0.024l-10.028 2.941v0.022l-8.531 2.495c-3.428 13.143 2.11 25.655 11.705 24.289 0 0 66.596-11.189 71.301-13.007 4.704-1.82 10.197-11.168 10.904-23.792C97.517 56.664 97.361 2.237 97.361 2.237z" data-fill-palette-color="quaternary"/></g></svg></g></svg></g></svg></g></svg></g><g/></svg></g></svg></g></svg></g></svg><rect width="448" height="360" fill="none" stroke="none" visibility="hidden"/></g></svg></g></svg>